HIERARCHY
ROOT Hips
{
  OFFSET 5.72205e-005 65.662 3.42586
  CHANNELS 6 Xposition Yposition Zposition Zrotation Xrotation Yrotation
  JOINT Chest
  {
    OFFSET 0 8.7983 -4.7612
    CHANNELS 3 Zrotation Xrotation Yrotation
    JOINT Chest2
    {
      OFFSET 0 8.0291 0.4195
      CHANNELS 3 Zrotation Xrotation Yrotation
      JOINT Chest3
      {
        OFFSET 0 9.9351 -2.2114
        CHANNELS 3 Zrotation Xrotation Yrotation
        JOINT Neck
        {
          OFFSET 0 22.3885 -0.4656
          CHANNELS 3 Zrotation Xrotation Yrotation
          JOINT Head
          {
            OFFSET -0.0001 12.643 3.4389
            CHANNELS 3 Zrotation Xrotation Yrotation
            End Site
            {
              OFFSET 0.0001 17.6655 0.5274
            }
          }
        }
        JOINT LeftCollar
        {
          OFFSET 2.2603 21.606 7.4023
          CHANNELS 3 Zrotation Xrotation Yrotation
          JOINT LeftShoulder
          {
            OFFSET 13.5163 -1.1332 -5.0146
            CHANNELS 3 Zrotation Xrotation Yrotation
            JOINT LeftElbow
            {
              OFFSET -0.0995 -28.05 -0.2431
              CHANNELS 3 Zrotation Xrotation Yrotation
              JOINT LeftWrist
              {
                OFFSET 0.0679 -23.3996 -0.1402
                CHANNELS 3 Zrotation Xrotation Yrotation
                JOINT LeftFinger1
                {
                  OFFSET 0.7932 -9.069 2.5189
                  CHANNELS 3 Zrotation Xrotation Yrotation
                  JOINT LeftFinger11
                  {
                    OFFSET -0.8272 -3.3923 0.5977
                    CHANNELS 3 Zrotation Xrotation Yrotation
                    JOINT LeftFinger12
                    {
                      OFFSET -0.5649 -2.3158 0.4082
                      CHANNELS 3 Zrotation Xrotation Yrotation
                      End Site
                      {
                        OFFSET -0.4919 -1.6479 0.2673
                      }
                    }
                  }
                }
                JOINT LeftFinger2
                {
                  OFFSET 0.9159 -9.2044 0.2193
                  CHANNELS 3 Zrotation Xrotation Yrotation
                  JOINT LeftFinger21
                  {
                    OFFSET 0.0117 -4.1944 -0.0248
                    CHANNELS 3 Zrotation Xrotation Yrotation
                    JOINT LeftFinger22
                    {
                      OFFSET 0.0071 -2.3249 -0.0142
                      CHANNELS 3 Zrotation Xrotation Yrotation
                      End Site
                      {
                        OFFSET -0.1475 -2.0882 0.0028
                      }
                    }
                  }
                }
                JOINT LeftFinger3
                {
                  OFFSET 0.6113 -8.7231 -2.0637
                  CHANNELS 3 Zrotation Xrotation Yrotation
                  JOINT LeftFinger31
                  {
                    OFFSET -0.1927 -3.8059 -0.2383
                    CHANNELS 3 Zrotation Xrotation Yrotation
                    JOINT LeftFinger32
                    {
                      OFFSET -0.1091 -2.1688 -0.1362
                      CHANNELS 3 Zrotation Xrotation Yrotation
                      End Site
                      {
                        OFFSET -0.2358 -1.9176 -0.0906
                      }
                    }
                  }
                }
                JOINT LeftFinger4
                {
                  OFFSET -0.6151 -8.0947 -3.5641
                  CHANNELS 3 Zrotation Xrotation Yrotation
                  JOINT LeftFinger41
                  {
                    OFFSET -0.4882 -2.341 -0.6462
                    CHANNELS 3 Zrotation Xrotation Yrotation
                    JOINT LeftFinger42
                    {
                      OFFSET -0.3575 -1.7167 -0.4742
                      CHANNELS 3 Zrotation Xrotation Yrotation
                      End Site
                      {
                        OFFSET -0.4187 -1.5237 -0.3496
                      }
                    }
                  }
                }
                JOINT LeftFinger0
                {
                  OFFSET -1.42 -1.8761 1.4223
                  CHANNELS 3 Zrotation Xrotation Yrotation
                  JOINT LeftFinger01
                  {
                    OFFSET -1.1471 -3.4929 2.6334
                    CHANNELS 3 Zrotation Xrotation Yrotation
                    JOINT LeftFinger02
                    {
                      OFFSET -0.823 -2.3 1.6571
                      CHANNELS 3 Zrotation Xrotation Yrotation
                      End Site
                      {
                        OFFSET -0.5822 -1.6914 1.1582
                      }
                    }
                  }
                }
              }
            }
          }
        }
        JOINT RightCollar
        {
          OFFSET -2.2603 21.606 7.4023
          CHANNELS 3 Zrotation Xrotation Yrotation
          JOINT RightShoulder
          {
            OFFSET -13.5187 -1.1334 -5.0155
            CHANNELS 3 Zrotation Xrotation Yrotation
            JOINT RightElbow
            {
              OFFSET 0.0994 -28.0499 -0.2431
              CHANNELS 3 Zrotation Xrotation Yrotation
              JOINT RightWrist
              {
                OFFSET -0.0679 -23.3996 -0.1402
                CHANNELS 3 Zrotation Xrotation Yrotation
                JOINT RightFinger1
                {
                  OFFSET -0.7932 -9.0691 2.5189
                  CHANNELS 3 Zrotation Xrotation Yrotation
                  JOINT RightFinger11
                  {
                    OFFSET 0.8272 -3.3923 0.5977
                    CHANNELS 3 Zrotation Xrotation Yrotation
                    JOINT RightFinger12
                    {
                      OFFSET 0.565 -2.3158 0.4082
                      CHANNELS 3 Zrotation Xrotation Yrotation
                      End Site
                      {
                        OFFSET 0.4919 -1.6479 0.2673
                      }
                    }
                  }
                }
                JOINT RightFinger2
                {
                  OFFSET -0.916 -9.2044 0.2193
                  CHANNELS 3 Zrotation Xrotation Yrotation
                  JOINT RightFinger21
                  {
                    OFFSET -0.0117 -4.1944 -0.0248
                    CHANNELS 3 Zrotation Xrotation Yrotation
                    JOINT RightFinger22
                    {
                      OFFSET -0.0071 -2.3249 -0.0142
                      CHANNELS 3 Zrotation Xrotation Yrotation
                      End Site
                      {
                        OFFSET 0.1475 -2.0882 0.0028
                      }
                    }
                  }
                }
                JOINT RightFinger3
                {
                  OFFSET -0.6113 -8.7231 -2.0637
                  CHANNELS 3 Zrotation Xrotation Yrotation
                  JOINT RightFinger31
                  {
                    OFFSET 0.1927 -3.8059 -0.2383
                    CHANNELS 3 Zrotation Xrotation Yrotation
                    JOINT RightFinger32
                    {
                      OFFSET 0.1091 -2.1688 -0.1362
                      CHANNELS 3 Zrotation Xrotation Yrotation
                      End Site
                      {
                        OFFSET 0.2358 -1.9176 -0.0906
                      }
                    }
                  }
                }
                JOINT RightFinger4
                {
                  OFFSET 0.6151 -8.0947 -3.564
                  CHANNELS 3 Zrotation Xrotation Yrotation
                  JOINT RightFinger41
                  {
                    OFFSET 0.4882 -2.341 -0.6462
                    CHANNELS 3 Zrotation Xrotation Yrotation
                    JOINT RightFinger42
                    {
                      OFFSET 0.3574 -1.7166 -0.4742
                      CHANNELS 3 Zrotation Xrotation Yrotation
                      End Site
                      {
                        OFFSET 0.4187 -1.5237 -0.3496
                      }
                    }
                  }
                }
                JOINT RightFinger0
                {
                  OFFSET 1.4199 -1.8761 1.4221
                  CHANNELS 3 Zrotation Xrotation Yrotation
                  JOINT RightFinger01
                  {
                    OFFSET 1.1472 -3.4929 2.6336
                    CHANNELS 3 Zrotation Xrotation Yrotation
                    JOINT RightFinger02
                    {
                      OFFSET 0.8229 -2.3 1.6571
                      CHANNELS 3 Zrotation Xrotation Yrotation
                      End Site
                      {
                        OFFSET 0.5822 -1.6914 1.1582
                      }
                    }
                  }
                }
              }
            }
          }
        }
      }
    }
  }
  JOINT RightHip
  {
    OFFSET -9.412 3.9771 -0.7758
    CHANNELS 3 Zrotation Xrotation Yrotation
    JOINT RightKnee
    {
      OFFSET -0.7531 -40.938 0
      CHANNELS 3 Zrotation Xrotation Yrotation
      JOINT RightAnkle
      {
        OFFSET 0 -40.1986 0
        CHANNELS 3 Zrotation Xrotation Yrotation
        JOINT RightToe
        {
          OFFSET 0 -4.4182 9.239
          CHANNELS 3 Zrotation Xrotation Yrotation
          End Site
          {
            OFFSET 0 0 6.1981
          }
        }
      }
    }
  }
  JOINT LeftHip
  {
    OFFSET 9.4119 3.9773 -0.7758
    CHANNELS 3 Zrotation Xrotation Yrotation
    JOINT LeftKnee
    {
      OFFSET 0.7532 -40.9383 0
      CHANNELS 3 Zrotation Xrotation Yrotation
      JOINT LeftAnkle
      {
        OFFSET 0 -40.1986 0
        CHANNELS 3 Zrotation Xrotation Yrotation
        JOINT LeftToe
        {
          OFFSET 0 -4.4182 9.239
          CHANNELS 3 Zrotation Xrotation Yrotation
          End Site
          {
            OFFSET 0 0 6.1981
          }
        }
      }
    }
  }
}
MOTION
Frames:	6
Frame Time:	0.0333333
5.72205e-005 65.662 3.42586 0 0 -0 0 0 -0 0 0 -0 0 0 -0 0 0 -0 0 0 -0 0 0 -12.5014 88.1196 14.2451 10.6914 -0.00160068 -0.00239207 0.000740045 -8.4365e-005 7.00714e-005 -9.52055e-007 9.93923e-017 -1.98785e-016 -1.59028e-015 9.93923e-017 -5.96354e-016 -1.59028e-015 -9.93923e-017 -5.96354e-016 -1.59028e-015 9.93923e-017 -1.98785e-016 -1.59028e-015 -0.0128176 0.00232552 8.52707e-005 9.93923e-017 5.96354e-016 -0 9.93923e-017 -1.98785e-016 -1.59028e-015 -0.0160551 0.00299681 0.000857156 -2.48481e-016 0 3.18055e-015 9.93923e-017 -1.98785e-016 -1.59028e-015 -0.0125865 0.0031206 0.00282719 0 1.98785e-016 -0 9.93923e-017 -1.98785e-016 -1.59028e-015 9.93923e-017 -5.96354e-016 -1.59028e-015 -9.93923e-017 -5.96354e-016 -1.59028e-015 -0.865644 0.16582 7.03859 -88.0329 10.2057 -10.5567 0.0015593 -0.00248883 -0.000788628 7.87605e-005 4.10553e-005 1.24965e-005 -3.97569e-016 -7.95139e-016 3.18055e-015 -1.98785e-016 -3.97569e-016 3.18055e-015 -1.98785e-016 0 3.18055e-015 -3.97569e-016 -7.95139e-016 3.18055e-015 0.0129473 0.00231697 -8.70038e-005 9.93923e-017 -7.95139e-016 1.59028e-015 -3.97569e-016 -7.95139e-016 3.18055e-015 0.0163314 0.00303369 -0.000872333 3.97569e-016 7.95139e-016 -3.18055e-015 -3.97569e-016 -7.95139e-016 3.18055e-015 0.0145763 0.00367772 -0.00326275 9.93923e-017 -3.97569e-016 -0 -3.97569e-016 -7.95139e-016 3.18055e-015 -1.98785e-016 -3.97569e-016 3.18055e-015 -1.98785e-016 0 3.18055e-015 3.42482 1.32465 -0.0626183 0.000117508 0.717283 0.000978199 -3.4257 -2.04197 -0.0604716 6.47761e-025 0 -0 -3.42483 1.34017 0.0627307 -0.000193936 0.682302 -0.0013703 3.42574 -2.02253 0.0595886 -8.45714e-024 0 -7.40531e-025 
0.827118 63.639 21.4561 -6.40969e-008 39.9976 -4.75072e-008 0.414271 -5.07863 -0.37836 0.799454 -10.1598 -0.723971 0.799456 -10.1598 -0.723973 0.263794 0.16994 0.158722 -3.08423e-008 0.316491 -1.13229e-007 -23.2589 37.6464 -19.0981 52.1857 -21.2081 78.8688 -108.594 0.763006 8.90511 36.1158 -49.4009 -93.9035 -3.18055e-015 3.18055e-015 7.95139e-016 4.41391e-032 3.18055e-015 -7.95139e-016 -1.59028e-015 0 -0 -3.18055e-015 3.18055e-015 7.95139e-016 -0.0127954 0.0023167 8.92419e-005 -4.77083e-015 -9.54166e-015 -2.38542e-015 -3.18055e-015 3.18055e-015 7.95139e-016 -0.0160601 0.00298064 0.00085539 -1.59028e-015 0 1.59028e-015 -3.18055e-015 3.18055e-015 7.95139e-016 -0.012605 0.00311945 0.00282871 -3.18055e-015 -3.18055e-015 -7.95139e-016 -3.18055e-015 3.18055e-015 7.95139e-016 4.41391e-032 3.18055e-015 -7.95139e-016 -1.59028e-015 0 -0 21.2416 37.4937 10.9127 -49.2736 -23.5653 -75.33 107.078 2.14131 -7.6131 -29.9721 -44.3342 97.7405 3.18055e-015 -2.5765e-007 -2.38542e-015 1.83376e-006 1.52223e-005 -8.24416e-006 -1.56698e-006 2.2711e-007 2.7249e-006 3.18055e-015 -2.5765e-007 -2.38542e-015 0.0128859 0.00232202 -9.35248e-005 4.99424e-006 1.84828e-006 1.76412e-006 3.18055e-015 -2.5765e-007 -2.38542e-015 0.0164055 0.00306735 -0.00088145 5.7092e-006 1.17201e-005 -3.94938e-006 3.18055e-015 -2.5765e-007 -2.38542e-015 0.0146358 0.0037029 -0.00327455 1.49879e-006 1.01909e-005 -7.07538e-006 3.18055e-015 -2.5765e-007 -2.38542e-015 1.83376e-006 1.52223e-005 -8.24416e-006 -1.56698e-006 2.2711e-007 2.7249e-006 -35.699 -61.078 -39.2888 5.65106 32.464 -5.28443 -5.00149 8.24957 -12.4865 -3.18055e-015 -3.18055e-015 9.54166e-015 35.2051 -61.5837 41.3063 -5.70591 33.7995 5.56969 7.0184 6.45363 10.5419 1.63574e-006 2.60814e-006 2.56848e-007 
0.826829 63.5917 21.9959 1.23128e-007 38.618 -2.91275e-008 0.410374 -4.68134 -0.385657 0.792993 -9.36523 -0.741265 0.792996 -9.36526 -0.741268 0.544347 0.300671 0.274744 -9.22811e-008 0.433189 4.60787e-007 -23.2339 37.3645 -19.339 52.1857 -21.2081 78.8688 -108.178 0.700029 8.92048 35.2012 -49.4287 -94.4025 1.76556e-031 -3.18055e-015 3.18055e-015 -1.59028e-015 0 7.95139e-016 1.59028e-015 -3.18055e-015 -0 1.76556e-031 -3.18055e-015 3.18055e-015 -0.0128246 0.00233116 9.00874e-005 -6.17947e-031 -6.36111e-015 -5.56597e-015 1.76556e-031 -3.18055e-015 3.18055e-015 -0.0160567 0.00300222 0.000867057 -4.77083e-015 6.36111e-015 -7.95139e-016 1.76556e-031 -3.18055e-015 3.18055e-015 -0.0125775 0.00312384 0.00283049 1.59028e-015 -3.18055e-015 7.95139e-016 1.76556e-031 -3.18055e-015 3.18055e-015 -1.59028e-015 0 7.95139e-016 1.59028e-015 -3.18055e-015 -0 21.2177 37.2147 11.1627 -49.2736 -23.5653 -75.33 107.078 2.14132 -7.61302 -29.9722 -44.3342 97.7404 5.29041e-006 8.69658e-006 -7.09016e-006 -0 0 6.36111e-015 -4.77083e-015 -3.18055e-015 3.97569e-015 5.29041e-006 8.69658e-006 -7.09016e-006 0.0129288 0.0022995 -8.73723e-005 -7.19544e-007 -4.44292e-007 -2.01997e-006 5.29041e-006 8.69658e-006 -7.09016e-006 0.0162506 0.00300705 -0.000863833 2.98679e-006 8.81248e-006 -6.38701e-006 5.29041e-006 8.69658e-006 -7.09016e-006 0.0145094 0.00365212 -0.00324323 2.37166e-006 -2.33075e-006 -4.08408e-006 5.29041e-006 8.69658e-006 -7.09016e-006 -0 0 6.36111e-015 -4.77083e-015 -3.18055e-015 3.97569e-015 -34.5305 -59.5696 -38.2716 5.64079 32.3953 -5.26511 -5.0808 7.85539 -12.0302 -7.95139e-016 4.77083e-015 -0 33.9704 -60.0715 40.1878 -5.6919 33.7346 5.55025 7.05755 6.05976 10.1476 4.06857e-006 5.14962e-007 -5.58238e-006 
0.826566 63.5489 22.537 9.8318e-008 37.2351 -1.32105e-007 0.40646 -4.28311 -0.39287 0.786679 -8.56882 -0.758357 0.78668 -8.56884 -0.758358 0.82486 0.432015 0.390209 -2.93767e-009 0.54992 -1.43826e-006 -23.2105 37.0824 -19.579 52.1857 -21.2081 78.8688 -107.762 0.637193 8.93614 34.2856 -49.4511 -94.9023 -3.18055e-015 -9.54166e-015 -5.56597e-015 -3.18055e-015 -6.36111e-015 3.18055e-015 -3.18055e-015 -3.18055e-015 5.56597e-015 -3.18055e-015 -9.54166e-015 -5.56597e-015 -0.0127871 0.0023056 8.54152e-005 -4.77083e-015 3.18055e-015 -7.95139e-016 -3.18055e-015 -9.54166e-015 -5.56597e-015 -0.016074 0.00298101 0.000851859 -1.59028e-015 3.18055e-015 7.15625e-015 -3.18055e-015 -9.54166e-015 -5.56597e-015 -0.0126101 0.00312854 0.00283972 4.77083e-015 0 -2.38542e-015 -3.18055e-015 -9.54166e-015 -5.56597e-015 -3.18055e-015 -6.36111e-015 3.18055e-015 -3.18055e-015 -3.18055e-015 5.56597e-015 21.1954 36.9355 11.4117 -49.2736 -23.5653 -75.33 107.078 2.14128 -7.61307 -29.9721 -44.3342 97.7405 -3.18055e-015 6.36111e-015 3.97569e-015 -4.41391e-032 3.18055e-015 7.95139e-016 -1.76556e-031 3.18055e-015 3.18055e-015 -3.18055e-015 6.36111e-015 3.97569e-015 0.0129835 0.00230739 -8.05591e-005 4.77083e-015 -6.36111e-015 -4.77083e-015 -3.18055e-015 6.36111e-015 3.97569e-015 0.016379 0.00303885 -0.000875587 4.77083e-015 -3.18055e-015 -3.18055e-015 -3.18055e-015 6.36111e-015 3.97569e-015 0.0146196 0.00366313 -0.00326735 -1.32417e-031 -3.18055e-015 -2.38542e-015 -3.18055e-015 6.36111e-015 3.97569e-015 -4.41391e-032 3.18055e-015 7.95139e-016 -1.76556e-031 3.18055e-015 3.18055e-015 -33.4639 -58.0457 -37.3572 5.63416 32.328 -5.24617 -5.15721 7.45949 -11.5749 -4.69572e-006 3.3787e-006 -7.97538e-006 32.8315 -58.5465 39.1683 -5.67214 33.6692 5.53086 7.09427 5.66449 9.75392 -4.9322e-006 -2.73816e-006 2.29465e-006 
0.826334 63.5106 23.0792 6.01607e-009 35.8494 2.30363e-008 0.402537 -3.8841 -0.400002 0.780513 -7.77081 -0.775252 0.780516 -7.77084 -0.775255 1.10531 0.56418 0.505133 1.82882e-006 0.666678 -4.10023e-007 -23.1887 36.8003 -19.8178 52.1857 -21.2081 78.8688 -107.346 0.574373 8.95253 33.3686 -49.4684 -95.4034 -7.58015e-007 2.06192e-007 -2.00343e-006 -1.52472e-006 -3.06722e-007 2.77269e-006 -3.18055e-015 -6.36111e-015 -6.36111e-015 -7.58015e-007 2.06192e-007 -2.00343e-006 -0.0127901 0.00231996 8.36635e-005 1.59028e-015 9.54166e-015 7.95139e-016 -7.58015e-007 2.06192e-007 -2.00343e-006 -0.016016 0.00298888 0.000854678 1.59028e-015 9.54166e-015 -4.77083e-015 -7.58015e-007 2.06192e-007 -2.00343e-006 -0.012567 0.00312311 0.00283017 3.18055e-015 -3.18055e-015 -4.77083e-015 -7.58015e-007 2.06192e-007 -2.00343e-006 -1.52472e-006 -3.06722e-007 2.77269e-006 -3.18055e-015 -6.36111e-015 -6.36111e-015 21.1747 36.6563 11.6597 -49.2736 -23.5653 -75.33 107.078 2.14128 -7.61307 -29.9722 -44.3342 97.7405 -0 0 3.18055e-015 7.88171e-006 1.32656e-005 -1.15578e-006 4.77083e-015 -3.18055e-015 -7.95139e-016 -0 0 3.18055e-015 0.0129278 0.00231065 -7.96303e-005 -1.59028e-015 -3.18055e-015 -0 -0 0 3.18055e-015 0.0163687 0.00303902 -0.000874919 -2.5683e-006 -4.00005e-006 1.8072e-006 -0 0 3.18055e-015 0.0145766 0.00367446 -0.00325413 1.59028e-015 0 -6.36111e-015 -0 0 3.18055e-015 7.88171e-006 1.32656e-005 -1.15578e-006 4.77083e-015 -3.18055e-015 -7.95139e-016 -32.4359 -56.5209 -36.4907 5.60063 32.2554 -5.22661 -5.23068 7.06206 -11.1205 -1.63567e-006 -8.65298e-007 -2.50876e-007 31.8252 -57.0001 38.2766 -5.67468 33.6116 5.51277 7.1286 5.26803 9.3608 7.95139e-016 0 -9.54166e-015 
0.826128 63.4769 23.6224 8.16399e-008 34.4613 -1.68797e-008 0.398594 -3.48433 -0.40704 0.774483 -6.97133 -0.79194 0.774483 -6.97133 -0.791941 1.38573 0.696782 0.619477 8.98706e-007 0.783453 -6.48291e-007 -23.1684 36.5179 -20.0559 52.1858 -21.2081 78.8688 -106.931 0.511713 8.96923 32.4511 -49.4805 -95.9049 -1.5204e-006 -2.44906e-007 -6.16219e-007 1.5204e-006 2.44906e-007 6.16219e-007 4.28137e-006 1.37578e-005 6.93275e-007 -1.5204e-006 -2.44906e-007 -6.16219e-007 -0.012834 0.00233596 8.38566e-005 2.28224e-006 1.53452e-006 -7.71694e-007 -1.5204e-006 -2.44906e-007 -6.16219e-007 -0.0160521 0.00299745 0.000851301 4.90792e-006 1.17474e-005 4.23617e-007 -1.5204e-006 -2.44906e-007 -6.16219e-007 -0.0125992 0.0031367 0.00283496 3.3279e-006 -8.5412e-006 -7.78811e-006 -1.5204e-006 -2.44906e-007 -6.16219e-007 1.5204e-006 2.44906e-007 6.16219e-007 4.28137e-006 1.37578e-005 6.93275e-007 21.1556 36.3768 11.9067 -49.2736 -23.5653 -75.33 107.078 2.14128 -7.61304 -29.9722 -44.3342 97.7404 3.46102e-008 7.66519e-006 -5.33998e-006 3.18055e-015 0 -6.36111e-015 1.59028e-015 3.18055e-015 -1.59028e-015 3.46102e-008 7.66519e-006 -5.33998e-006 0.0129718 0.00233141 -8.91576e-005 -1.59028e-015 3.18055e-015 1.03368e-014 3.46102e-008 7.66519e-006 -5.33998e-006 0.0164113 0.00303701 -0.000876544 -3.18055e-015 -3.18055e-015 -6.36111e-015 3.46102e-008 7.66519e-006 -5.33998e-006 0.0145218 0.00365195 -0.00324601 2.43303e-006 -9.76356e-007 -4.07363e-006 3.46102e-008 7.66519e-006 -5.33998e-006 3.18055e-015 0 -6.36111e-015 1.59028e-015 3.18055e-015 -1.59028e-015 -31.6337 -54.9404 -35.8252 5.66391 32.1978 -5.2093 -5.30125 6.66276 -10.6671 -2.45493e-006 4.08519e-007 -3.66046e-007 30.8976 -55.4404 37.465 -5.67849 33.5532 5.49472 7.16054 4.87008 8.96822 8.19409e-007 3.79942e-007 1.1551e-007 
